<svg width="49" height="48" viewBox="0 0 49 48" fill="none" xmlns="http://www.w3.org/2000/svg">
<g clip-path="url(#clip0_38_430)">
<path d="M48.3333 36L44.1333 15.9C43.5333 13.8 41.4333 12 39.0333 12H33.3333V8.4C33.3333 5.4 30.9333 3 27.9333 3H20.7333C17.7333 3 15.3333 5.4 15.3333 8.4V12H9.63328C7.23328 12 5.13328 13.8 4.53328 15.9L0.333277 36C-0.266723 39 2.13328 42 5.43328 42H42.9333C46.5333 42 48.9333 39 48.3333 36ZM18.3333 8.4C18.3333 7.2 19.5333 6 20.7333 6H27.9333C29.1333 6 30.3333 7.2 30.3333 8.4V12H18.3333V8.4ZM33.3333 30H27.3333V36H21.3333V30H15.3333V24H21.3333V18H27.3333V24H33.3333V30Z" fill="#2D8B45"/>
</g>
<defs>
<clipPath id="clip0_38_430">
<rect width="48" height="48" fill="white" transform="translate(0.333344)"/>
</clipPath>
</defs>
</svg>
