<svg width="80" height="46" viewBox="0 0 80 46" fill="none" xmlns="http://www.w3.org/2000/svg">
<path d="M17.6241 35.4489V34.8803C18.4606 34.8803 19.0374 34.65 19.3547 34.1893C19.6719 33.7287 19.8305 32.9225 19.8305 31.7709V19.542C19.8305 18.3688 19.6719 17.5555 19.3547 17.102C19.0374 16.6414 18.4606 16.4182 17.6241 16.4182V15.8496H26.63C29.954 15.8496 32.6147 16.7997 34.612 18.7071C36.6093 20.6145 37.6043 23.0401 37.6043 25.9768C37.6043 28.863 36.6598 31.1663 34.7706 32.8793C32.8815 34.5924 30.2497 35.4561 26.8752 35.4561H17.6241V35.4489ZM26.1036 16.5982H22.4047V31.0727C22.4047 32.4691 22.5705 33.4192 22.9022 33.9302C23.2339 34.4412 23.8972 34.7004 24.8923 34.7004H26.8968C29.2835 34.7004 31.1654 33.923 32.5354 32.3683C33.9054 30.8136 34.5904 28.6903 34.5904 26.0055C34.5904 23.1553 33.8405 20.8736 32.3407 19.1605C30.8481 17.4475 28.7715 16.5982 26.1036 16.5982Z" fill="#00398D"/>
<path d="M47.8075 16.1731H48.478V20.8732H47.7714C47.6128 19.5704 47.0504 18.5627 46.0986 17.8286C45.1468 17.1016 43.9499 16.7345 42.5078 16.7345C41.2243 16.7345 40.1932 17.008 39.4145 17.555C38.6286 18.1021 38.2392 18.829 38.2392 19.7431C38.2392 20.5853 38.5637 21.3554 39.2126 22.0536C39.8615 22.7518 41.2604 23.6443 43.4163 24.7383C45.9255 26.0051 47.6128 27.1064 48.4708 28.0565C49.3361 28.9994 49.7615 30.0862 49.7615 31.3026C49.7615 32.8789 49.1053 34.2177 47.7786 35.3406C46.4591 36.4562 44.8728 37.0176 43.0125 37.0176C41.9382 37.0176 40.561 36.7657 38.8953 36.2619C38.2104 36.0603 37.7705 35.9524 37.583 35.9524C37.1937 35.9524 36.8908 36.2115 36.6745 36.7225H35.9679V31.3026H36.6745C36.6889 32.7998 37.2658 33.9946 38.405 34.8943C39.5443 35.794 40.871 36.2475 42.3924 36.2475C43.8345 36.2475 44.9882 35.9236 45.8534 35.2686C46.7187 34.6208 47.1585 33.7499 47.1585 32.6702C47.1585 31.8569 46.8052 31.0867 46.0914 30.3454C45.3775 29.604 43.885 28.6467 41.6209 27.4807C39.7678 26.5162 38.5348 25.7532 37.9147 25.1918C37.2946 24.6304 36.8404 24.0186 36.5447 23.3492C36.2491 22.6798 36.0977 21.9528 36.0977 21.1539C36.0977 19.6136 36.6962 18.3684 37.8859 17.4039C39.0756 16.4466 40.6331 15.9644 42.551 15.9644C43.6038 15.9644 44.7502 16.1443 45.9904 16.497C46.5673 16.6553 46.9711 16.7345 47.2018 16.7345C47.3893 16.7345 47.519 16.6985 47.5839 16.6337C47.6488 16.5618 47.7282 16.4106 47.8075 16.1731Z" fill="#00398D"/>
<path d="M50.1438 44.8271C48.6584 45.2734 47.7283 44.8631 47.3461 43.6035C47.036 42.5743 47.3966 40.1846 48.4349 36.4346C49.8553 31.5114 51.3119 26.5738 52.7972 21.6362C52.7035 21.5426 52.5809 21.4706 52.4295 21.4203C52.278 21.3699 52.1627 21.3267 52.0834 21.2907C51.3984 21.4922 50.5187 22.1976 49.4227 23.3996C48.3339 24.6016 47.5336 25.5949 47.0216 26.3651L46.1564 25.5014C47.6634 23.5508 48.8459 22.104 49.7111 21.154C51.4993 19.2466 52.9847 18.1165 54.16 17.7638C55.5228 17.3536 56.388 17.7566 56.7485 18.9587C57.0586 19.9879 56.1933 23.6875 54.1528 30.0431C52.1194 36.3986 51.1893 39.8967 51.384 40.5229C51.5065 40.926 51.8094 41.0483 52.3069 40.9044C53.0496 40.6813 53.9653 39.9111 55.0541 38.5867C55.5516 38.0037 56.2726 37.0392 57.2244 35.6861L58.0897 36.5498C56.936 38.3348 55.7895 39.8967 54.6359 41.2355C52.9342 43.2364 51.4416 44.4385 50.1438 44.8271Z" fill="#00398D"/>
<path d="M59.3152 16.7274C63.9425 16.7274 67.6937 12.9829 67.6937 8.36372C67.6937 3.74457 63.9425 0 59.3152 0C54.6878 0 50.9366 3.74457 50.9366 8.36372C50.9366 12.9829 54.6878 16.7274 59.3152 16.7274Z" fill="#00398D"/>
<path d="M63.4042 9.30366C63.8729 7.27786 62.4252 5.21437 60.1707 4.69471C57.9163 4.17506 55.7088 5.39603 55.2402 7.42182C54.7716 9.44761 56.2193 11.5111 58.4737 12.0308C60.7282 12.5504 62.9356 11.3295 63.4042 9.30366Z" fill="#00398D"/>
<path d="M79.9297 14.0501C79.4682 12.4522 76.7066 11.6461 72.3803 11.5381C72.3876 11.5453 72.3948 11.5453 72.402 11.5525C72.4236 11.5525 72.438 11.5525 72.4597 11.5525C72.4957 11.5525 72.5318 11.5453 72.5678 11.5453C72.6471 11.5453 72.7264 11.5525 72.7985 11.5597C72.8202 11.5597 72.8346 11.5525 72.8562 11.5525C72.9572 11.5525 73.0509 11.5597 73.1374 11.5741C73.2023 11.5741 73.26 11.5813 73.3177 11.5813C73.4114 11.5813 73.5052 11.5885 73.5917 11.6029C73.6277 11.6101 73.6566 11.6101 73.6926 11.6173C73.6999 11.6173 73.6999 11.6173 73.7071 11.6173C73.7431 11.6245 73.7792 11.6317 73.8152 11.6389C73.9017 11.6461 73.9883 11.6604 74.0676 11.6748C74.1974 11.6748 74.3127 11.6964 74.4281 11.7252C74.5435 11.7324 74.6516 11.7612 74.7598 11.79C74.8319 11.7972 74.904 11.8044 74.9689 11.8188C75.0554 11.826 75.1419 11.8476 75.2213 11.8692C75.3366 11.8836 75.452 11.9052 75.5529 11.9412C76.6201 12.0707 77.7089 12.5818 78.2569 13.4599C78.6318 14.0573 78.5309 14.8202 78.1199 15.3529C78.0261 15.5904 77.8819 15.8063 77.7017 16.0007C77.6079 16.1734 77.4781 16.3318 77.3267 16.4613C77.2835 16.5117 77.233 16.5621 77.1825 16.6053C77.0743 16.7636 76.9446 16.9076 76.7787 17.0227C76.6994 17.1307 76.5985 17.2315 76.4903 17.3178C76.2091 17.6705 75.8486 17.9728 75.4664 18.2463C74.3776 19.218 73.1086 20.089 71.7747 20.7727C71.6954 20.8231 71.6088 20.8663 71.5223 20.9023C71.5079 20.9095 71.4935 20.9167 71.4862 20.9239C71.3853 20.9959 71.2771 21.0606 71.1618 21.111C70.1307 21.7372 68.941 22.3922 67.7008 22.9105C67.6935 22.9176 67.6863 22.9248 67.6719 22.932C67.5638 22.9968 67.4412 23.0544 67.3258 23.1048C67.3258 23.1048 67.333 23.1048 67.333 23.0976C67.3258 23.0976 67.3258 23.1048 67.3186 23.1048C67.3114 23.112 67.297 23.112 67.2898 23.1192C66.9869 23.2559 66.6913 23.3927 66.3885 23.5223C66.3885 23.5223 66.3884 23.5223 66.3812 23.5223C66.4605 23.4863 66.5399 23.4575 66.6192 23.4215C66.511 23.4719 66.4101 23.5295 66.3019 23.5726C66.2947 23.5726 66.2947 23.5726 66.2947 23.5798C66.2587 23.6014 66.2226 23.6374 66.1793 23.659C66.0423 23.731 65.8909 23.7886 65.7467 23.8534C65.689 23.8893 65.6169 23.9253 65.552 23.9541C65.4871 23.9901 65.415 24.0189 65.3429 24.0477C65.278 24.0837 65.2059 24.1125 65.1338 24.1413C65.1266 24.1485 65.1122 24.1485 65.105 24.1557H65.0978C65.0906 24.1629 65.0761 24.1629 65.0689 24.17C65.0545 24.1772 65.0401 24.1844 65.0257 24.1916C64.9464 24.242 64.8598 24.278 64.7733 24.314C64.7517 24.3212 64.7373 24.3356 64.7156 24.3428C64.6868 24.3572 64.6507 24.3788 64.6147 24.3932C64.593 24.4076 64.5714 24.422 64.5498 24.4364C64.0595 24.6955 63.5547 24.897 63.0356 25.0698C62.877 25.1921 62.6895 25.2785 62.4732 25.3289C62.4155 25.3649 62.3506 25.4009 62.2785 25.4296C62.1559 25.5016 62.0189 25.552 61.8675 25.5952C61.7665 25.6528 61.6584 25.7032 61.5358 25.7463C61.4853 25.7679 61.4277 25.7895 61.37 25.8111C61.3628 25.8111 61.3628 25.8111 61.3555 25.8183C61.269 25.8615 61.1825 25.9047 61.0815 25.9335C60.995 25.9767 60.9085 26.0127 60.8148 26.0415C60.8076 26.0486 60.7931 26.0486 60.7859 26.0486C60.6706 26.1206 60.5336 26.1782 60.3893 26.2214C60.2812 26.279 60.1586 26.3294 60.0288 26.3653C59.9639 26.3941 59.9062 26.4301 59.8341 26.4517C59.7404 26.5021 59.6395 26.5453 59.5241 26.5741C59.4159 26.6317 59.3006 26.682 59.178 26.718C59.1275 26.7396 59.0843 26.754 59.0338 26.7684C58.9761 26.79 58.9184 26.8116 58.8607 26.826C58.7814 26.862 58.7093 26.898 58.6228 26.9268C58.5651 26.9556 58.5074 26.9772 58.4497 26.9915C58.3704 27.0347 58.2911 27.0707 58.1974 27.0995C58.0676 27.1715 57.9234 27.2291 57.7647 27.2651C57.7287 27.2795 57.6854 27.2939 57.6494 27.3082C57.6061 27.3298 57.5701 27.3442 57.5268 27.3586C57.3898 27.4378 57.2456 27.4954 57.0797 27.5314C56.986 27.5746 56.8851 27.6177 56.7697 27.6465C56.676 27.6897 56.575 27.7329 56.4669 27.7617C56.4092 27.7905 56.3443 27.8193 56.2794 27.8409C56.1929 27.8841 56.1063 27.9201 56.0054 27.9488C55.89 28.0064 55.7674 28.0568 55.6304 28.0856C55.5511 28.1216 55.4718 28.1504 55.3853 28.1648C55.3637 28.172 55.342 28.1792 55.3204 28.1864C55.2627 28.2152 55.205 28.2368 55.1401 28.2583C55.1257 28.2655 55.1113 28.2655 55.0969 28.2727H55.0897C54.9671 28.3447 54.8229 28.3951 54.6714 28.4311C54.5489 28.5031 54.4119 28.5534 54.2605 28.5894C54.1667 28.6326 54.0658 28.6614 53.9576 28.683C53.835 28.7478 53.698 28.7982 53.5466 28.8342C53.4168 28.8989 53.2798 28.9493 53.1212 28.9853C53.0924 28.9997 53.0563 29.0141 53.0275 29.0285C52.8905 29.1005 52.7463 29.1509 52.5804 29.1868C52.4939 29.2228 52.4146 29.2588 52.3136 29.2876C52.2055 29.338 52.0901 29.374 51.9675 29.4028C51.9171 29.4244 51.8666 29.4388 51.8089 29.4532C51.6719 29.5323 51.5133 29.5899 51.333 29.6259C51.2609 29.6619 51.1816 29.6907 51.0951 29.7123C51.0374 29.7339 50.9797 29.7555 50.922 29.7699C50.7922 29.8346 50.6408 29.8706 50.4894 29.8922C50.4822 29.8994 50.4678 29.8994 50.4533 29.8994C50.374 29.9354 50.2875 29.9714 50.1937 29.993C50.1721 30.0002 50.1577 30.0074 50.1361 30.0146C50.1216 30.0146 50.1144 30.0218 50.1 30.0218C49.8981 30.101 49.6962 30.1657 49.4943 30.2161C49.3501 30.2953 49.1915 30.3529 49.0112 30.3817C48.8887 30.432 48.7589 30.4752 48.6147 30.4968C48.5353 30.5256 48.4488 30.5544 48.3551 30.5688C48.2613 30.6192 48.1532 30.6552 48.045 30.6912C47.908 30.7559 47.7566 30.8063 47.598 30.8351C47.4682 30.8999 47.3312 30.9503 47.1726 30.9791C47.1509 30.9863 47.1293 30.9863 47.1149 30.9935C46.9851 31.0582 46.8409 31.1014 46.6823 31.1302C46.5813 31.1734 46.4732 31.2094 46.3506 31.231C46.2208 31.2886 46.0838 31.3318 45.9252 31.3606C45.8891 31.375 45.8458 31.3893 45.8026 31.4037C45.68 31.4613 45.5502 31.5045 45.406 31.5261C45.2834 31.5765 45.1608 31.6197 45.0166 31.6413C44.9662 31.6629 44.9013 31.6773 44.8508 31.6916C44.7426 31.7492 44.6129 31.7852 44.4831 31.814C44.3172 31.9004 44.1297 31.958 43.9206 31.9868C43.899 31.9939 43.8702 32.0011 43.8485 32.0155C43.726 32.0731 43.589 32.1091 43.4448 32.1379C43.2933 32.2099 43.1275 32.2603 42.94 32.2819C42.7814 32.361 42.6083 32.4114 42.4065 32.4402C42.3127 32.4834 42.2046 32.5122 42.0964 32.5338C42.0315 32.5626 41.9522 32.5914 41.8801 32.6058C41.7503 32.6633 41.6061 32.7065 41.4475 32.7281C41.3681 32.7497 41.2888 32.7713 41.2095 32.7785C41.1086 32.8217 40.9932 32.8505 40.8778 32.8721C40.7408 32.9369 40.5822 32.98 40.4164 33.0016C40.3371 33.0304 40.2505 33.0592 40.164 33.0736C40.0198 33.1384 39.8539 33.1816 39.6809 33.2032C39.5655 33.2464 39.443 33.2823 39.306 33.3039C39.2627 33.3183 39.2266 33.3327 39.1834 33.3471C39.0464 33.4119 38.8877 33.4551 38.7147 33.4767C38.6138 33.5127 38.5056 33.5415 38.3974 33.5559H38.3902C38.246 33.6206 38.0874 33.671 37.9071 33.6998C37.7701 33.7574 37.6187 33.8078 37.4457 33.8222C37.3447 33.8582 37.2365 33.8869 37.1212 33.9013C37.0419 33.9301 36.9553 33.9589 36.8688 33.9805C36.7823 34.0093 36.6886 34.0237 36.5876 34.0381C36.4867 34.0813 36.3713 34.1101 36.2487 34.1317C36.2199 34.1461 36.1838 34.1461 36.155 34.1533C36.054 34.1893 35.9459 34.218 35.8233 34.2396C34.7706 34.6139 33.6457 34.8298 32.5425 35.0458C32.4776 35.0602 32.4128 35.0746 32.3406 35.089C32.2541 35.1106 32.1676 35.1321 32.0739 35.1465C32.0594 35.1537 32.045 35.1537 32.0306 35.1609C31.9585 35.1897 31.872 35.2113 31.7927 35.2329C31.7494 35.2473 31.6917 35.2545 31.6412 35.2617C31.5403 35.3049 31.4249 35.3337 31.3096 35.3553C31.2447 35.3769 31.1726 35.3985 31.0932 35.4129C30.9995 35.4273 30.9058 35.4488 30.8192 35.4704C30.7255 35.5064 30.6173 35.528 30.5092 35.5424C30.4227 35.5712 30.3289 35.5856 30.228 35.6C30.1919 35.6072 30.1631 35.6216 30.127 35.6216C30.0261 35.6504 29.9251 35.6792 29.817 35.6936C29.7232 35.7224 29.6223 35.7512 29.5141 35.7583C29.406 35.7943 29.2906 35.8159 29.168 35.8303C29.0815 35.8591 28.9878 35.8735 28.894 35.8879C28.8652 35.8951 28.8292 35.9023 28.7931 35.9095C28.6994 35.9455 28.5912 35.9671 28.4831 35.9815C28.4326 35.9959 28.3677 36.0031 28.3172 36.0103C28.2812 36.0247 28.2379 36.0247 28.2018 36.0319C28.1658 36.0463 28.1153 36.0463 28.0721 36.0607C27.9567 36.1038 27.8269 36.1326 27.6827 36.147C27.3943 36.2118 27.0986 36.2838 26.803 36.3342C26.7958 36.3342 26.7958 36.3342 26.7886 36.3342C26.7814 36.3342 26.7742 36.3342 26.767 36.3342C26.7165 36.3486 26.666 36.3558 26.6155 36.363C26.5146 36.3989 26.4064 36.4205 26.2911 36.4349C26.2406 36.4493 26.1829 36.4565 26.118 36.4637C26.0459 36.4853 25.9666 36.4997 25.8801 36.5069C25.8584 36.5141 25.8368 36.5141 25.8224 36.5213C25.6998 36.5645 25.57 36.5861 25.4258 36.6077C25.3393 36.6293 25.2456 36.6437 25.1518 36.6581C25.1086 36.6653 25.0653 36.6797 25.022 36.6869C24.9499 36.7012 24.885 36.7156 24.8057 36.7228C24.7769 36.73 24.7408 36.7444 24.7048 36.7444C24.6038 36.7732 24.5029 36.7948 24.3875 36.802C24.3442 36.8092 24.2938 36.8164 24.2505 36.8236H24.2433C24.1351 36.8596 24.0126 36.8812 23.89 36.8956C23.7962 36.9244 23.6881 36.9388 23.5799 36.9532C23.5006 36.9748 23.4069 36.9892 23.3204 36.9964C23.2555 37.0179 23.1834 37.0323 23.1113 37.0395C23.0752 37.0467 23.0392 37.0467 23.0103 37.0539C22.8877 37.0899 22.7579 37.1115 22.6209 37.1115C22.4695 37.1547 22.3109 37.1835 22.1451 37.1979C22.0369 37.2267 21.9215 37.2483 21.799 37.2555C21.7557 37.2699 21.7124 37.2771 21.662 37.2843C21.6187 37.2915 21.5682 37.2987 21.5177 37.3059C21.4961 37.3131 21.4673 37.3131 21.4384 37.3202C21.2365 37.3634 21.0346 37.3922 20.84 37.4138C20.7823 37.4282 20.7246 37.4354 20.6669 37.4426C20.5948 37.457 20.5155 37.4714 20.4434 37.4786C20.3713 37.493 20.2992 37.5074 20.2271 37.5146C20.1766 37.5218 20.1333 37.529 20.0829 37.5362C20.054 37.5434 20.0252 37.5434 19.9963 37.5506C19.9891 37.5506 19.9819 37.5506 19.9819 37.5506C19.9314 37.5578 19.881 37.5722 19.8233 37.5794C19.8017 37.5866 19.78 37.5866 19.7584 37.5866H19.7512C19.744 37.5866 19.7368 37.5866 19.7296 37.5938C19.6935 37.601 19.6574 37.6082 19.6214 37.6082C19.5853 37.6154 19.5493 37.6226 19.5132 37.6226C19.4916 37.6226 19.47 37.6297 19.4483 37.6297C19.369 37.6513 19.2825 37.6585 19.2032 37.6657C19.1239 37.6801 19.0446 37.6945 18.9652 37.7017H18.958C18.8499 37.7305 18.7345 37.7449 18.6191 37.7521C18.5975 37.7593 18.5687 37.7593 18.5398 37.7593C18.4894 37.7737 18.4389 37.7809 18.3884 37.7881C18.3163 37.8025 18.2298 37.8097 18.1505 37.8169C18.1144 37.8241 18.0784 37.8241 18.0423 37.8313C17.9702 37.8457 17.8909 37.8529 17.8116 37.8601C17.8044 37.8601 17.7899 37.8673 17.7827 37.8673C17.6962 37.8889 17.6025 37.9033 17.5015 37.9105C17.4294 37.9249 17.3573 37.9321 17.2852 37.9321C17.2131 37.9464 17.1482 37.9536 17.0689 37.9608C17.0256 37.968 16.9752 37.968 16.9319 37.9752C16.8526 37.9968 16.7661 38.004 16.6795 38.0112C16.5858 38.0256 16.4848 38.04 16.3839 38.04C16.2829 38.0616 16.182 38.076 16.0738 38.076C16.0666 38.076 16.0594 38.076 16.0522 38.076C16.0017 38.0832 15.9513 38.0904 15.9008 38.0904C15.7998 38.112 15.6845 38.1264 15.5691 38.1264C15.461 38.148 15.3456 38.1624 15.223 38.1624C15.1221 38.184 15.0139 38.1984 14.8985 38.1984C14.7904 38.22 14.6822 38.2344 14.5596 38.2344C14.5452 38.2344 14.538 38.2344 14.5236 38.2344C14.4371 38.2488 14.3505 38.2631 14.264 38.2631C14.228 38.2631 14.1991 38.2631 14.1631 38.2703C14.0693 38.2847 13.9756 38.2919 13.8674 38.2919C13.8602 38.2919 13.8602 38.2919 13.853 38.2919C13.817 38.2919 13.7881 38.2991 13.7521 38.2991C13.6944 38.3063 13.6367 38.3135 13.579 38.3135C13.5213 38.3207 13.4564 38.3279 13.3916 38.3279C13.2978 38.3423 13.2041 38.3495 13.0959 38.3495C12.6561 38.3999 12.209 38.4215 11.7692 38.4359C11.661 38.4575 11.5385 38.4719 11.4159 38.4719C11.4087 38.4719 11.4015 38.4719 11.387 38.4719C10.9184 38.5151 10.4497 38.5295 10.0531 38.5079C10.0387 38.5079 10.0243 38.5079 10.0098 38.5079C9.99543 38.5079 9.98822 38.5079 9.9738 38.5079C9.94495 38.5079 9.91611 38.5079 9.88006 38.5007C9.80795 38.5079 9.72864 38.5151 9.64932 38.5151C9.57722 38.5151 9.51233 38.5079 9.44743 38.5007C9.44022 38.5007 9.43301 38.5007 9.4258 38.5007C9.41859 38.5007 9.41138 38.5007 9.40417 38.5007C9.05807 38.5151 8.71917 38.5223 8.38028 38.5007C8.30097 38.5007 8.0486 38.4863 8.01255 38.4863C7.96208 38.4935 7.9116 38.4935 7.85392 38.4935C7.78182 38.4935 7.71692 38.4791 7.64482 38.4719C7.60155 38.4719 7.5655 38.4791 7.52224 38.4791C7.44292 38.4791 7.36361 38.4719 7.28429 38.4647H7.27708C7.26266 38.4647 7.24824 38.4647 7.22661 38.4647C7.21219 38.4647 7.19056 38.4647 7.17614 38.4647C7.13287 38.4647 7.09682 38.4575 7.05356 38.4503C7.02472 38.4503 6.98866 38.4575 6.95982 38.4575C6.85167 38.4575 6.74351 38.4431 6.64256 38.4287C6.61372 38.4287 6.58488 38.4215 6.55604 38.4215C6.54883 38.4215 6.54162 38.4215 6.5344 38.4215C6.42625 38.4215 6.31809 38.4143 6.22436 38.3927C6.21714 38.3927 6.20272 38.3927 6.1883 38.3927C6.18109 38.3927 6.17388 38.3927 6.16667 38.3927C6.02967 38.3927 5.89267 38.3783 5.77731 38.3567C5.73404 38.3495 5.68357 38.3495 5.6331 38.3423C5.59704 38.3351 5.56099 38.3423 5.52494 38.3351C5.47447 38.3279 5.4312 38.3207 5.38794 38.3135C5.30142 38.3063 5.2221 38.2991 5.14279 38.2775C4.96252 38.2703 4.78947 38.2416 4.63805 38.1912C4.602 38.184 4.56595 38.1768 4.5299 38.1696C4.50105 38.1624 4.47221 38.1624 4.45058 38.1552C4.41453 38.148 4.37127 38.1408 4.33521 38.1336C4.22706 38.1192 4.12611 38.0976 4.02516 38.0688C3.94585 38.0544 3.86653 38.0328 3.79443 38.004C3.78001 37.9968 3.76559 37.9968 3.75117 37.9968C3.65022 37.9824 3.55648 37.9608 3.46275 37.9249C3.3618 37.9033 3.26807 37.8673 3.18154 37.8313C3.05896 37.7953 2.94359 37.7593 2.83544 37.7017C2.65518 37.6513 2.50376 37.5794 2.36676 37.4786C2.26581 37.4282 2.17208 37.3706 2.08555 37.3059C2.04229 37.2843 2.00623 37.2483 1.97018 37.2267C1.75387 37.1043 1.58082 36.9316 1.45103 36.73C1.33566 36.5717 1.24914 36.3989 1.19145 36.2118C1.19145 36.2046 1.19145 36.2046 1.19145 36.1974C1.18424 36.1758 1.17703 36.1614 1.16982 36.147C1.04003 35.6648 1.14819 35.2761 1.34287 34.8298C1.43661 34.6139 1.55198 34.3764 1.69618 34.1821L1.7034 34.1749C1.76829 34.0597 1.84039 33.9517 1.93413 33.8582C1.9846 33.779 2.04229 33.707 2.10718 33.635C2.19371 33.5055 2.28744 33.3831 2.3956 33.2751C2.48213 33.1528 2.59028 33.052 2.71286 32.9656C2.7417 32.9368 2.77775 32.9081 2.81381 32.8793C2.87149 32.8217 2.92917 32.7713 2.99407 32.7209C3.03012 32.6921 3.06617 32.6561 3.10222 32.6273C3.1527 32.5698 3.21038 32.5122 3.27528 32.4618C3.31854 32.4186 3.36901 32.3826 3.41227 32.3394C3.48438 32.2675 3.55648 32.2027 3.64301 32.1451C3.67906 32.1091 3.71511 32.0803 3.75117 32.0515C3.76559 32.0371 3.78722 32.0227 3.80885 32.0083C3.89538 31.9076 4.00353 31.8284 4.1189 31.7564C4.16216 31.7204 4.19822 31.6916 4.24148 31.6629C4.30637 31.5981 4.37848 31.5333 4.45779 31.4829C4.47221 31.4685 4.47942 31.4613 4.49384 31.4469C1.2924 33.6854 -0.366007 35.7008 0.0738311 37.2123C1.37171 41.6749 20.2992 40.1058 42.356 33.707C64.4056 27.3154 81.2276 18.5127 79.9297 14.0501Z" fill="#00398D"/>
</svg>
