<svg width="49" height="48" viewBox="0 0 49 48" fill="none" xmlns="http://www.w3.org/2000/svg">
<g clip-path="url(#clip0_38_411)">
<path d="M30.6667 31.2499L22.9998 39.0749L15.333 31.2499C9.58824 31.5042 4.99985 36.303 4.99985 42.2249C4.99985 43.4913 5.49266 44.7058 6.36988 45.6013C7.2471 46.4968 8.43686 46.9999 9.67744 46.9999H36.3223C37.5628 46.9999 38.7526 46.4968 39.6298 45.6013C40.507 44.7058 40.9998 43.4913 40.9998 42.2249C40.9998 36.303 36.4115 31.5042 30.6667 31.2499ZM22.9998 29.9374C25.7278 29.9374 28.344 28.8312 30.2729 26.862C32.2019 24.8929 33.2856 22.2222 33.2856 19.4374V10.3992C33.2862 9.86436 33.1268 9.34208 32.8286 8.90227C32.5305 8.46247 32.1079 8.12612 31.6173 7.93826L24.8055 5.33377C23.6413 4.88815 22.3584 4.88815 21.1942 5.33377L14.3823 7.94154C13.8923 8.12921 13.4701 8.46505 13.172 8.90421C12.8739 9.34336 12.7141 9.86492 12.7141 10.3992V19.4374C12.7141 22.2222 13.7978 24.8929 15.7267 26.862C17.6557 28.8312 20.2719 29.9374 22.9998 29.9374ZM19.7856 10.8791C19.7856 10.7703 19.8279 10.666 19.9032 10.5891C19.9786 10.5121 20.0808 10.4689 20.1873 10.4689H21.9287V8.69131C21.9287 8.58253 21.971 8.4782 22.0464 8.40128C22.1217 8.32436 22.2239 8.28115 22.3305 8.28115H23.6692C23.7758 8.28115 23.878 8.32436 23.9533 8.40128C24.0287 8.4782 24.071 8.58253 24.071 8.69131V10.4689H25.8123C25.9189 10.4689 26.0211 10.5121 26.0965 10.5891C26.1718 10.666 26.2141 10.7703 26.2141 10.8791V12.2457C26.2141 12.3545 26.1718 12.4588 26.0965 12.5357C26.0211 12.6127 25.9189 12.6559 25.8123 12.6559H24.071V14.4335C24.071 14.5423 24.0287 14.6466 23.9533 14.7235C23.878 14.8004 23.7758 14.8436 23.6692 14.8436H22.3305C22.2239 14.8436 22.1217 14.8004 22.0464 14.7235C21.971 14.6466 21.9287 14.5423 21.9287 14.4335V12.6559H20.1873C20.0808 12.6559 19.9786 12.6127 19.9032 12.5357C19.8279 12.4588 19.7856 12.3545 19.7856 12.2457V10.8791Z" fill="#2D8B45"/>
</g>
<defs>
<clipPath id="clip0_38_411">
<rect width="36" height="42" fill="white" transform="translate(4.99985 5)"/>
</clipPath>
</defs>
</svg>
