<svg width="48" height="48" viewBox="0 0 48 48" fill="none" xmlns="http://www.w3.org/2000/svg">
<path d="M43.2663 35.9337C42.3841 33.9376 40.9434 32.2636 39.1317 31.1297C37.7009 30.2342 36.0912 29.7084 34.4371 29.5869C33.5932 29.5249 32.8061 29.952 32.2746 30.6103L26.993 37.1517C25.7935 38.6373 23.5298 38.6391 22.3278 37.1555L17.0413 30.63C16.4988 29.9603 15.6918 29.5323 14.8334 29.6097C13.2128 29.7558 11.6391 30.2825 10.234 31.1576C8.43991 32.2749 6.9989 33.9115 6.08772 35.8666C5.32083 37.5775 4.74949 39.3724 4.38326 41.2146C4.09912 42.6438 5.23817 43.9053 6.69511 43.9334L7.83185 43.9552C8.5694 43.9694 9.15988 44.5714 9.15988 45.309C9.15988 46.0569 9.76612 46.6631 10.514 46.6631H38.8245C39.5652 46.6631 40.1657 46.0626 40.1657 45.3219C40.1657 44.5812 40.7662 43.9808 41.5069 43.9808H42.637C44.0866 43.9808 45.2353 42.7348 44.9579 41.3119C44.5863 39.4059 43.9983 37.5491 43.2043 35.7808L43.2663 35.9337Z" fill="#2D8B45"/>
<ellipse cx="25.3558" cy="16.023" rx="10.3333" ry="10.6897" fill="#2D8B45"/>
</svg>
