<svg width="49" height="48" viewBox="0 0 49 48" fill="none" xmlns="http://www.w3.org/2000/svg">
<path d="M44.0618 21.5189L42.7362 16.1936C42.4408 14.9922 41.7511 13.9245 40.7774 13.1612C39.8037 12.3979 38.6023 11.9832 37.3651 11.9832C36.1279 11.9832 34.9264 12.3979 33.9527 13.1612C32.9791 13.9245 32.2894 14.9922 31.994 16.1936L30.6683 21.5189C30.5631 21.9336 30.5094 22.3596 30.5083 22.7874C30.5029 24.3666 31.0847 25.8915 32.1406 27.0657C33.1966 28.24 34.6514 28.9798 36.2223 29.1413V35.9981C36.2223 37.2104 35.7407 38.3731 34.8834 39.2304C34.0262 40.0876 32.8635 40.5692 31.6511 40.5692C30.4388 40.5692 29.2761 40.0876 28.4188 39.2304C27.5616 38.3731 27.08 37.2104 27.08 35.9981V14.2851C27.08 12.4666 26.3576 10.7225 25.0717 9.43666C23.7858 8.15077 22.0418 7.42837 20.2232 7.42837H13.3665V6.28558H14.5093C14.8124 6.28558 15.1031 6.16518 15.3174 5.95086C15.5317 5.73655 15.6521 5.44588 15.6521 5.14279C15.6521 4.8397 15.5317 4.54903 15.3174 4.33472C15.1031 4.1204 14.8124 4 14.5093 4H9.93815C9.63506 4 9.34439 4.1204 9.13008 4.33472C8.91576 4.54903 8.79536 4.8397 8.79536 5.14279C8.79536 5.44588 8.91576 5.73655 9.13008 5.95086C9.34439 6.16518 9.63506 6.28558 9.93815 6.28558H11.0809V7.42837H8.48681C8.23524 6.99264 7.84693 6.6521 7.38209 6.45956C6.91726 6.26702 6.40188 6.23324 5.91589 6.36346C5.4299 6.49368 5.00046 6.78062 4.69417 7.17978C4.38788 7.57895 4.22186 8.06802 4.22186 8.57115C4.22186 9.07429 4.38788 9.56336 4.69417 9.96253C5.00046 10.3617 5.4299 10.6486 5.91589 10.7789C6.40188 10.9091 6.91726 10.8753 7.38209 10.6828C7.84693 10.4902 8.23524 10.1497 8.48681 9.71394H11.0809V10.8567H8.79536C8.49228 10.8567 8.2016 10.9771 7.98729 11.1914C7.77297 11.4058 7.65257 11.6964 7.65257 11.9995V14.5822C6.59502 15.3186 5.73103 16.2996 5.13412 17.4417C4.53721 18.5838 4.22505 19.8532 4.22421 21.1418V41.712C4.22421 42.0151 4.34461 42.3058 4.55892 42.5201C4.77324 42.7344 5.06391 42.8548 5.367 42.8548H19.0805C19.3835 42.8548 19.6742 42.7344 19.8885 42.5201C20.1028 42.3058 20.2232 42.0151 20.2232 41.712V21.1418C20.2224 19.8532 19.9102 18.5838 19.3133 17.4417C18.7164 16.2996 17.8524 15.3186 16.7949 14.5822V11.9995C16.7949 11.6964 16.6745 11.4058 16.4602 11.1914C16.2459 10.9771 15.9552 10.8567 15.6521 10.8567H13.3665V9.71394H20.2232C21.4356 9.71394 22.5983 10.1955 23.4555 11.0528C24.3128 11.9101 24.7944 13.0728 24.7944 14.2851V35.9981C24.7944 37.8166 25.5168 39.5606 26.8027 40.8465C28.0886 42.1324 29.8326 42.8548 31.6511 42.8548C33.4697 42.8548 35.2137 42.1324 36.4996 40.8465C37.7855 39.5606 38.5079 37.8166 38.5079 35.9981V29.1413C40.0729 28.9804 41.5229 28.2455 42.578 27.0785C43.6332 25.9114 44.2188 24.395 44.2218 22.8217C44.2236 22.3825 44.1698 21.9447 44.0618 21.5189ZM38.5079 26.8558V26.6044C38.9436 26.3528 39.2841 25.9645 39.4767 25.4996C39.6692 25.0348 39.703 24.5194 39.5728 24.0334C39.4426 23.5475 39.1556 23.118 38.7565 22.8117C38.3573 22.5054 37.8682 22.3394 37.3651 22.3394C36.8619 22.3394 36.3729 22.5054 35.9737 22.8117C35.5745 23.118 35.2876 23.5475 35.1574 24.0334C35.0272 24.5194 35.0609 25.0348 35.2535 25.4996C35.446 25.9645 35.7866 26.3528 36.2223 26.6044V26.8558C35.2664 26.7059 34.3955 26.2192 33.7669 25.4837C33.1382 24.7482 32.7931 23.8122 32.7939 22.8446C32.7955 22.6056 32.8262 22.3676 32.8854 22.1361L34.211 16.7992C34.3911 16.0996 34.7987 15.4797 35.3697 15.0371C35.9407 14.5945 36.6426 14.3543 37.3651 14.3543C38.0875 14.3543 38.7895 14.5945 39.3604 15.0371C39.9314 15.4797 40.3391 16.0996 40.5192 16.7992L41.8448 22.1361C41.904 22.3676 41.9347 22.6056 41.9362 22.8446C41.937 23.8122 41.5919 24.7482 40.9633 25.4837C40.3346 26.2192 39.4638 26.7059 38.5079 26.8558Z" fill="#2D8B45"/>
</svg>
