<svg width="49" height="48" viewBox="0 0 49 48" fill="none" xmlns="http://www.w3.org/2000/svg">
<path d="M37.778 16C36.364 15.9965 34.9943 16.4937 33.9119 17.4036C32.8295 18.3134 32.1041 19.5772 31.8645 20.9708C31.6249 22.3644 31.8864 23.7978 32.6028 25.017C33.3191 26.2362 34.444 27.1623 35.778 27.6313V31C35.778 33.3869 34.8298 35.6761 33.142 37.3639C31.4541 39.0518 29.165 40 26.778 40C24.3911 40 22.1019 39.0518 20.414 37.3639C18.7262 35.6761 17.778 33.3869 17.778 31V29.8193C20.5712 29.3454 23.107 27.8991 24.9369 25.7363C26.7669 23.5734 27.7732 20.8331 27.778 18V6C27.778 5.46957 27.5673 4.96086 27.1922 4.58579C26.8171 4.21071 26.3084 4 25.778 4H21.778C21.2476 4 20.7389 4.21071 20.3638 4.58579C19.9887 4.96086 19.778 5.46957 19.778 6C19.778 6.53043 19.9887 7.03914 20.3638 7.41421C20.7389 7.78928 21.2476 8 21.778 8H23.778V18C23.778 20.1217 22.9352 22.1566 21.4349 23.6568C19.9346 25.1571 17.8997 26 15.778 26C13.6563 26 11.6214 25.1571 10.1212 23.6568C8.62087 22.1566 7.77801 20.1217 7.77801 18V8H9.77801C10.3084 8 10.8172 7.78928 11.1922 7.41421C11.5673 7.03914 11.778 6.53043 11.778 6C11.778 5.46957 11.5673 4.96086 11.1922 4.58579C10.8172 4.21071 10.3084 4 9.77801 4H5.77801C5.24758 4 4.73887 4.21071 4.3638 4.58579C3.98873 4.96086 3.77802 5.46957 3.77802 6V18C3.78283 20.8331 4.78916 23.5734 6.61911 25.7363C8.44906 27.8991 10.9848 29.3454 13.778 29.8193V31C13.778 34.4478 15.1476 37.7544 17.5856 40.1924C20.0236 42.6303 23.3302 44 26.778 44C30.2258 44 33.5324 42.6303 35.9704 40.1924C38.4084 37.7544 39.778 34.4478 39.778 31V27.6315C41.112 27.1624 42.2369 26.2363 42.9532 25.0171C43.6695 23.7979 43.9311 22.3645 43.6914 20.9709C43.4518 19.5773 42.7265 18.3135 41.6441 17.4036C40.5617 16.4937 39.192 15.9965 37.778 16ZM37.778 24C37.3824 24 36.9958 23.8827 36.6669 23.6629C36.338 23.4432 36.0816 23.1308 35.9302 22.7654C35.7789 22.3999 35.7393 21.9978 35.8164 21.6098C35.8936 21.2219 36.0841 20.8655 36.3638 20.5858C36.6435 20.3061 36.9999 20.1156 37.3878 20.0384C37.7758 19.9613 38.1779 20.0009 38.5434 20.1522C38.9088 20.3036 39.2212 20.56 39.4409 20.8889C39.6607 21.2178 39.778 21.6044 39.778 22C39.7773 22.5302 39.5664 23.0385 39.1915 23.4134C38.8165 23.7884 38.3082 23.9993 37.778 24Z" fill="#2D8B45"/>
</svg>
