<svg width="24" height="24" viewBox="0 0 24 24" fill="none" xmlns="http://www.w3.org/2000/svg">
<path d="M20.2078 1.11869L23.3068 4.22063C23.5266 4.43944 23.7009 4.69952 23.8199 4.98593C23.9389 5.27234 24.0001 5.57943 24 5.88956C24 6.5216 23.7524 7.11577 23.3068 7.56141L19.9689 10.8993C19.7501 11.119 19.49 11.2934 19.2036 11.4124C18.9172 11.5313 18.6101 11.5925 18.3 11.5925C17.668 11.5925 17.0738 11.3449 16.6282 10.8993L14.1874 8.45849C12.9281 9.02982 11.7825 9.82416 10.8058 10.8032C9.82445 11.7797 9.02723 12.9252 8.45243 14.1847L10.8932 16.6255C11.113 16.8443 11.2874 17.1044 11.4063 17.3908C11.5253 17.6772 11.5865 17.9843 11.5864 18.2944C11.5864 18.9265 11.3388 19.5206 10.8932 19.9663L7.55825 23.307C7.33904 23.5271 7.07847 23.7016 6.79155 23.8206C6.50463 23.9395 6.19701 24.0006 5.88641 24.0002C5.25437 24.0002 4.66019 23.7527 4.21456 23.307L1.11845 20.2109C0.404856 19.5002 0 18.5187 0 17.5109C0 17.2983 0.0174751 17.0944 0.0524273 16.8934C0.699028 12.9672 2.78738 9.07306 5.92719 5.93034C9.06408 2.79053 12.9553 0.705093 16.8932 0.0497532C18.0961 -0.148304 19.334 0.250725 20.2078 1.11869Z" fill="#2D8B45"/>
</svg>
